<svg width="687" height="194" viewBox="0 0 687 194" fill="none" xmlns="http://www.w3.org/2000/svg">
<path d="M467.499 133.555H475.564V126.328H468.023C461.739 126.328 459.539 122.872 459.539 117.006V86.108H476.298V79.0903H459.539V63.2745H451.788V76.3671C451.788 78.1477 450.636 79.0903 449.17 79.0903H441V86.108H451.265V117.111C451.265 128.109 457.444 133.555 467.499 133.555Z" fill="white"/>
<path d="M513.979 134.917C526.757 134.917 536.289 127.69 539.326 117.53H530.737C528.224 123.919 521.311 127.376 514.084 127.376C502.876 127.376 495.859 120.149 495.44 109.256H539.85V105.59C539.85 89.8786 530.004 77.7287 513.455 77.7287C498.582 77.7287 486.746 88.9359 486.746 106.323C486.746 122.662 497.325 134.917 513.979 134.917ZM495.649 101.924C496.487 91.8687 504.343 85.27 513.455 85.27C522.672 85.27 530.318 91.0308 531.052 101.924H495.649Z" fill="white"/>
<path d="M562.175 133.555H566.155V126.224H563.641C561.023 126.224 559.661 124.652 559.661 121.929V55H551.387V121.929C551.387 129.366 555.367 133.555 562.175 133.555Z" fill="white"/>
<path d="M665.142 134.917C677.815 134.917 686.299 128.004 686.299 117.74C686.299 95.2204 653.62 106.742 653.62 92.9161C653.62 88.2028 658.019 84.8511 664.827 84.8511C672.054 84.8511 675.93 88.3075 676.663 93.4398H684.623C683.785 83.5942 675.406 77.7287 665.351 77.7287C653.934 77.7287 645.66 83.6989 645.66 92.9161C645.66 114.493 678.234 102.866 678.234 118.159C678.234 123.71 673.73 127.69 665.56 127.69C657.6 127.69 652.992 124.234 652.049 117.74H643.984C644.927 127.899 652.258 134.917 665.142 134.917Z" fill="white"/>
<g filter="url(#filter0_i)">
<path d="M55.188 89.424V82.404H46.656L50.112 59.4H42.444L38.988 82.404H27.216L30.672 59.4H23.004L19.548 82.404H9.72V89.424H18.468L16.092 105.084H6.48V112.104H15.012L11.556 135H19.224L22.68 112.104H34.452L30.996 135H38.664L42.12 112.104H51.948V105.084H43.2L45.576 89.424H55.188ZM35.532 105.084H23.76L26.136 89.424H37.908L35.532 105.084ZM99.7152 136.404C116.239 136.404 127.687 124.2 127.687 107.028C127.687 89.748 116.239 77.436 100.363 77.436C88.5912 77.436 82.3272 84.996 80.5992 87.912H79.9512V54H71.4192V135H79.6272V126.144H80.2752C81.6792 128.196 87.5112 136.404 99.7152 136.404ZM99.1752 128.736C86.9712 128.736 79.6272 118.8 79.6272 107.028C79.6272 93.204 88.2672 85.212 99.3912 85.212C110.947 85.212 118.939 94.284 118.939 107.028C118.939 120.204 110.947 128.736 99.1752 128.736ZM162.694 136.404C171.442 136.404 177.49 131.868 179.866 126.792H180.514V135H189.046V78.84H180.514V112.536C180.514 121.824 173.602 128.628 164.746 128.628C156.862 128.628 150.274 122.796 150.274 113.832V78.84H141.742V114.156C141.742 126.576 149.626 136.404 162.694 136.404ZM211.796 68.688C215.468 68.688 218.06 65.988 218.06 62.424C218.06 58.968 215.468 56.268 211.796 56.268C208.232 56.268 205.64 58.968 205.64 62.424C205.64 65.988 208.232 68.688 211.796 68.688ZM207.368 135H215.9V78.84H207.368V135ZM245.387 135H249.491V127.44H246.899C244.199 127.44 242.795 125.82 242.795 123.012V54H234.263V123.012C234.263 130.68 238.367 135 245.387 135ZM285.507 135H293.823V127.548H286.047C279.567 127.548 277.299 123.984 277.299 117.936V86.076H294.579V78.84H277.299V62.532H269.307V76.032C269.307 77.868 268.119 78.84 266.607 78.84H258.183V86.076H268.767V118.044C268.767 129.384 275.139 135 285.507 135ZM334.621 136.404C351.469 136.404 363.997 123.768 363.997 106.92C363.997 90.072 351.685 77.436 334.729 77.436C317.989 77.436 305.353 89.964 305.353 106.92C305.353 123.984 317.773 136.404 334.621 136.404ZM334.621 128.628C322.633 128.628 314.101 119.556 314.101 106.92C314.101 94.608 322.525 85.212 334.621 85.212C346.717 85.212 355.249 94.5 355.249 106.92C355.249 119.448 346.717 128.628 334.621 128.628ZM379.072 135H387.604V101.52C387.604 92.232 394.516 85.428 403.372 85.428C411.256 85.428 417.844 91.26 417.844 100.224V135H426.376V99.684C426.376 87.264 418.492 77.436 405.424 77.436C396.676 77.436 390.628 81.972 388.252 87.048H387.604V78.84H379.072V135Z" fill="url(#paint0_linear)"/>
</g>
<path d="M55.188 89.424V90.6115H56.3755V89.424H55.188ZM55.188 82.404H56.3755V81.2165H55.188V82.404ZM46.656 82.404L45.4817 82.2276L45.2768 83.5915H46.656V82.404ZM50.112 59.4L51.2863 59.5764L51.4912 58.2125H50.112V59.4ZM42.444 59.4V58.2125H41.4216L41.2697 59.2236L42.444 59.4ZM38.988 82.404V83.5915H40.0104L40.1623 82.5804L38.988 82.404ZM27.216 82.404L26.0417 82.2276L25.8368 83.5915H27.216V82.404ZM30.672 59.4L31.8463 59.5764L32.0512 58.2125H30.672V59.4ZM23.004 59.4V58.2125H21.9816L21.8297 59.2236L23.004 59.4ZM19.548 82.404V83.5915H20.5704L20.7223 82.5804L19.548 82.404ZM9.72 82.404V81.2165H8.5325V82.404H9.72ZM9.72 89.424H8.5325V90.6115H9.72V89.424ZM18.468 89.424L19.6421 89.6021L19.8493 88.2365H18.468V89.424ZM16.092 105.084V106.271H17.1129L17.2661 105.262L16.092 105.084ZM6.48 105.084V103.896H5.2925V105.084H6.48ZM6.48 112.104H5.2925V113.291H6.48V112.104ZM15.012 112.104L16.1862 112.281L16.3922 110.916H15.012V112.104ZM11.556 135L10.3818 134.823L10.1758 136.188H11.556V135ZM19.224 135V136.188H20.2457L20.3982 135.177L19.224 135ZM22.68 112.104V110.916H21.6583L21.5058 111.927L22.68 112.104ZM34.452 112.104L35.6262 112.281L35.8322 110.916H34.452V112.104ZM30.996 135L29.8218 134.823L29.6158 136.188H30.996V135ZM38.664 135V136.188H39.6857L39.8382 135.177L38.664 135ZM42.12 112.104V110.916H41.0983L40.9458 111.927L42.12 112.104ZM51.948 112.104V113.291H53.1355V112.104H51.948ZM51.948 105.084H53.1355V103.896H51.948V105.084ZM43.2 105.084L42.0259 104.906L41.8187 106.271H43.2V105.084ZM45.576 89.424V88.2365H44.5551L44.4019 89.2459L45.576 89.424ZM35.532 105.084V106.271H36.5529L36.7061 105.262L35.532 105.084ZM23.76 105.084L22.5859 104.906L22.3787 106.271H23.76V105.084ZM26.136 89.424V88.2365H25.1151L24.9619 89.2459L26.136 89.424ZM37.908 89.424L39.0821 89.6021L39.2893 88.2365H37.908V89.424ZM56.3755 89.424V82.404H54.0005V89.424H56.3755ZM55.188 81.2165H46.656V83.5915H55.188V81.2165ZM47.8303 82.5804L51.2863 59.5764L48.9377 59.2236L45.4817 82.2276L47.8303 82.5804ZM50.112 58.2125H42.444V60.5875H50.112V58.2125ZM41.2697 59.2236L37.8137 82.2276L40.1623 82.5804L43.6183 59.5764L41.2697 59.2236ZM38.988 81.2165H27.216V83.5915H38.988V81.2165ZM28.3903 82.5804L31.8463 59.5764L29.4977 59.2236L26.0417 82.2276L28.3903 82.5804ZM30.672 58.2125H23.004V60.5875H30.672V58.2125ZM21.8297 59.2236L18.3737 82.2276L20.7223 82.5804L24.1783 59.5764L21.8297 59.2236ZM19.548 81.2165H9.72V83.5915H19.548V81.2165ZM8.5325 82.404V89.424H10.9075V82.404H8.5325ZM9.72 90.6115H18.468V88.2365H9.72V90.6115ZM17.2939 89.2459L14.9179 104.906L17.2661 105.262L19.6421 89.6021L17.2939 89.2459ZM16.092 103.896H6.48V106.271H16.092V103.896ZM5.2925 105.084V112.104H7.6675V105.084H5.2925ZM6.48 113.291H15.012V110.916H6.48V113.291ZM13.8378 111.927L10.3818 134.823L12.7302 135.177L16.1862 112.281L13.8378 111.927ZM11.556 136.188H19.224V133.812H11.556V136.188ZM20.3982 135.177L23.8542 112.281L21.5058 111.927L18.0498 134.823L20.3982 135.177ZM22.68 113.291H34.452V110.916H22.68V113.291ZM33.2778 111.927L29.8218 134.823L32.1702 135.177L35.6262 112.281L33.2778 111.927ZM30.996 136.188H38.664V133.812H30.996V136.188ZM39.8382 135.177L43.2942 112.281L40.9458 111.927L37.4898 134.823L39.8382 135.177ZM42.12 113.291H51.948V110.916H42.12V113.291ZM53.1355 112.104V105.084H50.7605V112.104H53.1355ZM51.948 103.896H43.2V106.271H51.948V103.896ZM44.3741 105.262L46.7501 89.6021L44.4019 89.2459L42.0259 104.906L44.3741 105.262ZM45.576 90.6115H55.188V88.2365H45.576V90.6115ZM35.532 103.896H23.76V106.271H35.532V103.896ZM24.9341 105.262L27.3101 89.6021L24.9619 89.2459L22.5859 104.906L24.9341 105.262ZM26.136 90.6115H37.908V88.2365H26.136V90.6115ZM36.7339 89.2459L34.3579 104.906L36.7061 105.262L39.0821 89.6021L36.7339 89.2459ZM80.5992 87.912V89.0995H81.2759L81.6208 88.5174L80.5992 87.912ZM79.9512 87.912H78.7637V89.0995H79.9512V87.912ZM79.9512 54H81.1387V52.8125H79.9512V54ZM71.4192 54V52.8125H70.2317V54H71.4192ZM71.4192 135H70.2317V136.188H71.4192V135ZM79.6272 135V136.188H80.8147V135H79.6272ZM79.6272 126.144V124.956H78.4397V126.144H79.6272ZM80.2752 126.144L81.2553 125.473L80.9016 124.956H80.2752V126.144ZM99.7152 137.592C108.282 137.592 115.594 134.421 120.759 128.973C125.921 123.529 128.875 115.881 128.875 107.028H126.5C126.5 115.347 123.73 122.387 119.036 127.338C114.347 132.285 107.672 135.217 99.7152 135.217V137.592ZM128.875 107.028C128.875 89.1807 116.98 76.2485 100.363 76.2485V78.6235C115.498 78.6235 126.5 90.3153 126.5 107.028H128.875ZM100.363 76.2485C88.0239 76.2485 81.4314 84.1783 79.5776 87.3066L81.6208 88.5174C83.223 85.8137 89.1585 78.6235 100.363 78.6235V76.2485ZM80.5992 86.7245H79.9512V89.0995H80.5992V86.7245ZM81.1387 87.912V54H78.7637V87.912H81.1387ZM79.9512 52.8125H71.4192V55.1875H79.9512V52.8125ZM70.2317 54V135H72.6067V54H70.2317ZM71.4192 136.188H79.6272V133.812H71.4192V136.188ZM80.8147 135V126.144H78.4397V135H80.8147ZM79.6272 127.331H80.2752V124.956H79.6272V127.331ZM79.2952 126.815C80.7534 128.946 86.8953 137.592 99.7152 137.592V135.217C88.1271 135.217 82.605 127.446 81.2553 125.473L79.2952 126.815ZM99.1752 127.549C93.4236 127.549 88.8667 125.219 85.7296 121.528C82.5765 117.817 80.8147 112.675 80.8147 107.028H78.4397C78.4397 113.153 80.3499 118.865 83.9198 123.065C87.5057 127.285 92.7229 129.923 99.1752 129.923V127.549ZM80.8147 107.028C80.8147 100.367 82.8918 95.2243 86.1974 91.7552C89.5021 88.2871 94.1213 86.3995 99.3912 86.3995V84.0245C93.5371 84.0245 88.2743 86.1329 84.478 90.1168C80.6827 94.0997 78.4397 99.8648 78.4397 107.028H80.8147ZM99.3912 86.3995C104.84 86.3995 109.401 88.5295 112.612 92.1313C115.833 95.7433 117.752 100.902 117.752 107.028H120.127C120.127 100.41 118.05 94.6607 114.385 90.5507C110.711 86.4305 105.499 84.0245 99.3912 84.0245V86.3995ZM117.752 107.028C117.752 113.377 115.829 118.499 112.597 122.02C109.373 125.533 104.76 127.549 99.1752 127.549V129.923C105.362 129.923 110.632 127.673 114.347 123.626C118.053 119.587 120.127 113.855 120.127 107.028H117.752ZM179.866 126.792V125.604H179.11L178.79 126.289L179.866 126.792ZM180.514 126.792H181.701V125.604H180.514V126.792ZM180.514 135H179.326V136.188H180.514V135ZM189.046 135V136.188H190.233V135H189.046ZM189.046 78.84H190.233V77.6525H189.046V78.84ZM180.514 78.84V77.6525H179.326V78.84H180.514ZM150.274 78.84H151.461V77.6525H150.274V78.84ZM141.742 78.84V77.6525H140.554V78.84H141.742ZM162.694 137.592C171.866 137.592 178.355 132.821 180.941 127.295L178.79 126.289C176.625 130.915 171.017 135.217 162.694 135.217V137.592ZM179.866 127.979H180.514V125.604H179.866V127.979ZM179.326 126.792V135H181.701V126.792H179.326ZM180.514 136.188H189.046V133.812H180.514V136.188ZM190.233 135V78.84H187.858V135H190.233ZM189.046 77.6525H180.514V80.0275H189.046V77.6525ZM179.326 78.84V112.536H181.701V78.84H179.326ZM179.326 112.536C179.326 121.179 172.935 127.44 164.746 127.44V129.816C174.268 129.816 181.701 122.469 181.701 112.536H179.326ZM164.746 127.44C157.494 127.44 151.461 122.117 151.461 113.832H149.086C149.086 123.475 156.229 129.816 164.746 129.816V127.44ZM151.461 113.832V78.84H149.086V113.832H151.461ZM150.274 77.6525H141.742V80.0275H150.274V77.6525ZM140.554 78.84V114.156H142.929V78.84H140.554ZM140.554 114.156C140.554 120.613 142.605 126.472 146.434 130.731C150.276 135.005 155.842 137.592 162.694 137.592V135.217C156.478 135.217 151.567 132.889 148.2 129.144C144.82 125.384 142.929 120.119 142.929 114.156H140.554ZM207.368 135H206.181V136.188H207.368V135ZM215.9 135V136.188H217.088V135H215.9ZM215.9 78.84H217.088V77.6525H215.9V78.84ZM207.368 78.84V77.6525H206.181V78.84H207.368ZM211.796 69.8755C216.138 69.8755 219.248 66.6302 219.248 62.424H216.873C216.873 65.3458 214.799 67.5005 211.796 67.5005V69.8755ZM219.248 62.424C219.248 58.3122 216.124 55.0805 211.796 55.0805V57.4555C214.813 57.4555 216.873 59.6238 216.873 62.424H219.248ZM211.796 55.0805C207.563 55.0805 204.453 58.3259 204.453 62.424H206.828C206.828 59.6101 208.902 57.4555 211.796 57.4555V55.0805ZM204.453 62.424C204.453 66.6164 207.549 69.8755 211.796 69.8755V67.5005C208.915 67.5005 206.828 65.3596 206.828 62.424H204.453ZM207.368 136.188H215.9V133.812H207.368V136.188ZM217.088 135V78.84H214.713V135H217.088ZM215.9 77.6525H207.368V80.0275H215.9V77.6525ZM206.181 78.84V135H208.556V78.84H206.181ZM249.491 135V136.188H250.678V135H249.491ZM249.491 127.44H250.678V126.253H249.491V127.44ZM242.795 54H243.982V52.8125H242.795V54ZM234.263 54V52.8125H233.075V54H234.263ZM245.387 136.188H249.491V133.812H245.387V136.188ZM250.678 135V127.44H248.303V135H250.678ZM249.491 126.253H246.899V128.628H249.491V126.253ZM246.899 126.253C245.791 126.253 245.121 125.928 244.712 125.479C244.288 125.013 243.982 124.233 243.982 123.012H241.607C241.607 124.599 242.004 126.033 242.956 127.079C243.925 128.142 245.307 128.628 246.899 128.628V126.253ZM243.982 123.012V54H241.607V123.012H243.982ZM242.795 52.8125H234.263V55.1875H242.795V52.8125ZM233.075 54V123.012H235.45V54H233.075ZM233.075 123.012C233.075 127.049 234.157 130.371 236.325 132.692C238.502 135.024 241.629 136.188 245.387 136.188V133.812C242.125 133.812 239.69 132.816 238.06 131.071C236.42 129.315 235.45 126.643 235.45 123.012H233.075ZM293.823 135V136.188H295.011V135H293.823ZM293.823 127.548H295.011V126.36H293.823V127.548ZM277.299 86.076V84.8885H276.112V86.076H277.299ZM294.579 86.076V87.2635H295.767V86.076H294.579ZM294.579 78.84H295.767V77.6525H294.579V78.84ZM277.299 78.84H276.112V80.0275H277.299V78.84ZM277.299 62.532H278.487V61.3445H277.299V62.532ZM269.307 62.532V61.3445H268.12V62.532H269.307ZM258.183 78.84V77.6525H256.996V78.84H258.183ZM258.183 86.076H256.996V87.2635H258.183V86.076ZM268.767 86.076H269.955V84.8885H268.767V86.076ZM285.507 136.188H293.823V133.812H285.507V136.188ZM295.011 135V127.548H292.636V135H295.011ZM293.823 126.36H286.047V128.736H293.823V126.36ZM286.047 126.36C283.022 126.36 281.23 125.535 280.154 124.248C279.04 122.916 278.487 120.85 278.487 117.936H276.112C276.112 121.07 276.692 123.81 278.332 125.772C280.01 127.779 282.593 128.736 286.047 128.736V126.36ZM278.487 117.936V86.076H276.112V117.936H278.487ZM277.299 87.2635H294.579V84.8885H277.299V87.2635ZM295.767 86.076V78.84H293.392V86.076H295.767ZM294.579 77.6525H277.299V80.0275H294.579V77.6525ZM278.487 78.84V62.532H276.112V78.84H278.487ZM277.299 61.3445H269.307V63.7195H277.299V61.3445ZM268.12 62.532V76.032H270.495V62.532H268.12ZM268.12 76.032C268.12 76.6844 267.916 77.0599 267.697 77.2731C267.469 77.494 267.11 77.6525 266.607 77.6525V80.0275C267.617 80.0275 268.607 79.7 269.352 78.9759C270.105 78.2441 270.495 77.2156 270.495 76.032H268.12ZM266.607 77.6525H258.183V80.0275H266.607V77.6525ZM256.996 78.84V86.076H259.371V78.84H256.996ZM258.183 87.2635H268.767V84.8885H258.183V87.2635ZM267.58 86.076V118.044H269.955V86.076H267.58ZM267.58 118.044C267.58 123.934 269.239 128.518 272.42 131.624C275.595 134.725 280.117 136.188 285.507 136.188V133.812C280.529 133.812 276.681 132.467 274.079 129.925C271.482 127.388 269.955 123.494 269.955 118.044H267.58ZM334.621 137.592C352.131 137.592 365.185 124.418 365.185 106.92H362.81C362.81 123.118 350.808 135.217 334.621 135.217V137.592ZM365.185 106.92C365.185 89.4307 352.355 76.2485 334.729 76.2485V78.6235C351.015 78.6235 362.81 90.7133 362.81 106.92H365.185ZM334.729 76.2485C317.333 76.2485 304.166 89.3082 304.166 106.92H306.541C306.541 90.6198 318.645 78.6235 334.729 78.6235V76.2485ZM304.166 106.92C304.166 124.634 317.112 137.592 334.621 137.592V135.217C318.435 135.217 306.541 123.334 306.541 106.92H304.166ZM334.621 127.44C323.353 127.44 315.289 118.966 315.289 106.92H312.914C312.914 120.146 321.914 129.816 334.621 129.816V127.44ZM315.289 106.92C315.289 95.1819 323.26 86.3995 334.621 86.3995V84.0245C321.79 84.0245 312.914 94.0341 312.914 106.92H315.289ZM334.621 86.3995C345.994 86.3995 354.062 95.0865 354.062 106.92H356.437C356.437 93.9135 347.44 84.0245 334.621 84.0245V86.3995ZM354.062 106.92C354.062 118.857 345.998 127.44 334.621 127.44V129.816C347.436 129.816 356.437 120.038 356.437 106.92H354.062ZM379.072 135H377.884V136.188H379.072V135ZM387.604 135V136.188H388.791V135H387.604ZM417.844 135H416.656V136.188H417.844V135ZM426.376 135V136.188H427.563V135H426.376ZM388.252 87.048V88.2355H389.007L389.327 87.5514L388.252 87.048ZM387.604 87.048H386.416V88.2355H387.604V87.048ZM387.604 78.84H388.791V77.6525H387.604V78.84ZM379.072 78.84V77.6525H377.884V78.84H379.072ZM379.072 136.188H387.604V133.812H379.072V136.188ZM388.791 135V101.52H386.416V135H388.791ZM388.791 101.52C388.791 92.8772 395.182 86.6155 403.372 86.6155V84.2405C393.849 84.2405 386.416 91.5868 386.416 101.52H388.791ZM403.372 86.6155C410.623 86.6155 416.656 91.9389 416.656 100.224H419.031C419.031 90.5811 411.888 84.2405 403.372 84.2405V86.6155ZM416.656 100.224V135H419.031V100.224H416.656ZM417.844 136.188H426.376V133.812H417.844V136.188ZM427.563 135V99.684H425.188V135H427.563ZM427.563 99.684C427.563 93.2269 425.512 87.3681 421.683 83.1086C417.841 78.8349 412.276 76.2485 405.424 76.2485V78.6235C411.64 78.6235 416.55 80.9511 419.917 84.6964C423.297 88.4559 425.188 93.7211 425.188 99.684H427.563ZM405.424 76.2485C396.251 76.2485 389.763 81.0189 387.176 86.5446L389.327 87.5514C391.493 82.9251 397.1 78.6235 405.424 78.6235V76.2485ZM388.252 85.8605H387.604V88.2355H388.252V85.8605ZM388.791 87.048V78.84H386.416V87.048H388.791ZM387.604 77.6525H379.072V80.0275H387.604V77.6525ZM377.884 78.84V135H380.259V78.84H377.884Z" fill="url(#paint1_linear)" fill-opacity="0.12"/>
<g filter="url(#filter1_i)">
<circle cx="604.381" cy="106.109" r="28.8914" fill="url(#paint2_linear)"/>
</g>
<circle cx="604.381" cy="106.109" r="28.2977" stroke="url(#paint3_linear)" stroke-opacity="0.12" stroke-width="1.1875"/>
<defs>
<filter id="filter0_i" x="-3.02" y="54" width="429.396" height="82.404" filterUnits="userSpaceOnUse" color-interpolation-filters="sRGB">
<feFlood flood-opacity="0" result="BackgroundImageFix"/>
<feBlend mode="normal" in="SourceGraphic" in2="BackgroundImageFix" result="shape"/>
<feColorMatrix in="SourceAlpha" type="matrix" values="0 0 0 0 0 0 0 0 0 0 0 0 0 0 0 0 0 0 127 0" result="hardAlpha"/>
<feOffset dx="-14.25"/>
<feGaussianBlur stdDeviation="4.75"/>
<feComposite in2="hardAlpha" operator="arithmetic" k2="-1" k3="1"/>
<feColorMatrix type="matrix" values="0 0 0 0 0.682353 0 0 0 0 0.45098 0 0 0 0 0.980392 0 0 0 0.56 0"/>
<feBlend mode="normal" in2="shape" result="effect1_innerShadow"/>
</filter>
<filter id="filter1_i" x="565.989" y="77.2173" width="67.2829" height="57.7829" filterUnits="userSpaceOnUse" color-interpolation-filters="sRGB">
<feFlood flood-opacity="0" result="BackgroundImageFix"/>
<feBlend mode="normal" in="SourceGraphic" in2="BackgroundImageFix" result="shape"/>
<feColorMatrix in="SourceAlpha" type="matrix" values="0 0 0 0 0 0 0 0 0 0 0 0 0 0 0 0 0 0 127 0" result="hardAlpha"/>
<feOffset dx="-14.25"/>
<feGaussianBlur stdDeviation="4.75"/>
<feComposite in2="hardAlpha" operator="arithmetic" k2="-1" k3="1"/>
<feColorMatrix type="matrix" values="0 0 0 0 0.682353 0 0 0 0 0.45098 0 0 0 0 0.980392 0 0 0 0.56 0"/>
<feBlend mode="normal" in2="shape" result="effect1_innerShadow"/>
</filter>
<linearGradient id="paint0_linear" x1="0" y1="97" x2="436" y2="97" gradientUnits="userSpaceOnUse">
<stop stop-color="#AE73FA"/>
<stop offset="1" stop-color="#AE73FA" stop-opacity="0"/>
</linearGradient>
<linearGradient id="paint1_linear" x1="436" y1="97" x2="-6.37001e-06" y2="97" gradientUnits="userSpaceOnUse">
<stop stop-color="#AE73FA"/>
<stop offset="1" stop-color="#AE73FA" stop-opacity="0"/>
</linearGradient>
<linearGradient id="paint2_linear" x1="575.489" y1="106.109" x2="633.272" y2="106.109" gradientUnits="userSpaceOnUse">
<stop stop-color="#AE73FA"/>
<stop offset="1" stop-color="#AE73FA" stop-opacity="0"/>
</linearGradient>
<linearGradient id="paint3_linear" x1="633.272" y1="106.109" x2="575.489" y2="106.109" gradientUnits="userSpaceOnUse">
<stop stop-color="#AE73FA"/>
<stop offset="1" stop-color="#AE73FA" stop-opacity="0"/>
</linearGradient>
</defs>
</svg>
