<svg width="247" height="105" viewBox="0 0 247 105" fill="none" xmlns="http://www.w3.org/2000/svg">
<circle cx="163.89" cy="75.89" r="28.89" fill="url(#paint0_linear)"/>
<path d="M27.4994 103.555H35.5644V96.3283H28.0231C21.7386 96.3283 19.5391 92.8719 19.5391 87.0064V56.108H36.2976V49.0903H19.5391V33.2745H11.7883V46.3671C11.7883 48.1477 10.6361 49.0903 9.16976 49.0903H1V56.108H11.2646V87.1112C11.2646 98.1089 17.4443 103.555 27.4994 103.555Z" fill="#15166D"/>
<path d="M73.9788 104.917C86.7571 104.917 96.2885 97.69 99.326 87.5301H90.7373C88.2235 93.9193 81.3106 97.3757 74.0835 97.3757C62.8763 97.3757 55.8587 90.1486 55.4397 79.2556H99.8497V75.5897C99.8497 59.8786 90.0041 47.7287 73.4551 47.7287C58.5819 47.7287 46.7463 58.9359 46.7463 76.3229C46.7463 92.6624 57.3251 104.917 73.9788 104.917ZM55.6492 71.9238C56.4871 61.8687 64.3427 55.27 73.4551 55.27C82.6723 55.27 90.3183 61.0308 91.0515 71.9238H55.6492Z" fill="#15166D"/>
<path d="M122.175 103.555H126.155V96.2236H123.641C121.023 96.2236 119.661 94.6525 119.661 91.9292V25H111.387V91.9292C111.387 99.3658 115.367 103.555 122.175 103.555Z" fill="#15166D"/>
<path d="M225.142 104.917C237.815 104.917 246.299 98.0042 246.299 87.7396C246.299 65.2204 213.62 76.7418 213.62 62.9161C213.62 58.2028 218.019 54.8511 224.827 54.8511C232.054 54.8511 235.93 58.3075 236.663 63.4398H244.623C243.785 53.5942 235.406 47.7287 225.351 47.7287C213.934 47.7287 205.66 53.6989 205.66 62.9161C205.66 84.4926 238.234 72.8664 238.234 88.1586C238.234 93.7098 233.73 97.69 225.56 97.69C217.6 97.69 212.992 94.2335 212.049 87.7396H203.984C204.927 97.8994 212.258 104.917 225.142 104.917Z" fill="#15166D"/>
<g filter="url(#filter0_i)">
<circle cx="164.381" cy="76.1086" r="28.8914" fill="url(#paint1_linear)"/>
<circle cx="164.381" cy="76.1086" r="28.8914" fill="#130C3F" fill-opacity="0.2"/>
</g>
<circle cx="164.381" cy="76.1086" r="28.2977" stroke="url(#paint2_linear)" stroke-opacity="0.12" stroke-width="1.1875"/>
<g filter="url(#filter1_i)">
<path d="M2.34844 17H5.79244C7.44444 17 8.81644 15.978 8.81644 14.214C8.81644 12.828 7.89244 12.128 7.23444 11.904V11.82C8.01844 11.4 8.48044 10.672 8.48044 9.706C8.48044 8.278 7.37444 7.2 5.51244 7.2H2.34844V17ZM3.46844 11.442V8.208H5.51244C6.56244 8.208 7.31844 8.824 7.31844 9.79C7.31844 10.784 6.57644 11.442 5.47044 11.442H3.46844ZM3.46844 16.006V12.394H5.47044C6.60444 12.394 7.64044 12.898 7.64044 14.186C7.64044 15.446 6.75844 16.006 5.59644 16.006H3.46844ZM20.0347 17.182C22.3587 17.182 23.6887 15.684 23.6887 13.472V7.2H22.5687V13.458C22.5687 15.096 21.6867 16.132 20.0347 16.132C18.3827 16.132 17.5147 15.096 17.5147 13.472V7.2H16.3807V13.486C16.3807 15.712 17.6827 17.182 20.0347 17.182ZM31.9508 17H33.0848V7.2H31.9508V17ZM41.4883 17H46.8503V15.978H42.6223V7.2H41.4883V17ZM54.8875 17H56.0215V8.236H59.0175V7.2H51.8915V8.236H54.8875V17ZM80.32 17.182C83.246 17.182 85.402 14.984 85.402 12.1C85.402 9.244 83.26 7.018 80.334 7.018C77.422 7.018 75.266 9.216 75.266 12.1C75.266 15.012 77.408 17.182 80.32 17.182ZM80.334 16.118C78.094 16.118 76.442 14.424 76.442 12.1C76.442 9.804 78.094 8.082 80.334 8.082C82.574 8.082 84.226 9.804 84.226 12.1C84.226 14.424 82.574 16.118 80.334 16.118ZM93.1051 17H94.2391V9.174H94.3231L99.3911 17H100.595V7.2H99.4751V15.026H99.3911L94.2671 7.2H93.1051V17Z" fill="url(#paint3_linear)"/>
</g>
<path d="M2.34844 17H1.16094V18.1875H2.34844V17ZM7.23444 11.904H6.04694V12.7542L6.85175 13.0281L7.23444 11.904ZM7.23444 11.82L6.67368 10.7732L6.04694 11.109V11.82H7.23444ZM2.34844 7.2V6.0125H1.16094V7.2H2.34844ZM3.46844 11.442H2.28094V12.6295H3.46844V11.442ZM3.46844 8.208V7.0205H2.28094V8.208H3.46844ZM3.46844 16.006H2.28094V17.1935H3.46844V16.006ZM3.46844 12.394V11.2065H2.28094V12.394H3.46844ZM2.34844 18.1875H5.79244V15.8125H2.34844V18.1875ZM5.79244 18.1875C6.85576 18.1875 7.90219 17.8584 8.70145 17.1661C9.51965 16.4573 10.0039 15.4293 10.0039 14.214H7.62894C7.62894 14.7627 7.42723 15.1277 7.14643 15.3709C6.84669 15.6306 6.38112 15.8125 5.79244 15.8125V18.1875ZM10.0039 14.214C10.0039 12.185 8.61517 11.1196 7.61713 10.7799L6.85175 13.0281C7.00099 13.079 7.2033 13.1953 7.35958 13.3831C7.50021 13.552 7.62894 13.8063 7.62894 14.214H10.0039ZM8.42194 11.904V11.82H6.04694V11.904H8.42194ZM7.7952 12.8668C8.9624 12.2415 9.66794 11.1128 9.66794 9.706H7.29294C7.29294 10.2312 7.07448 10.5585 6.67368 10.7732L7.7952 12.8668ZM9.66794 9.706C9.66794 8.66871 9.25781 7.711 8.47905 7.02591C7.71035 6.34966 6.66978 6.0125 5.51244 6.0125V8.3875C6.21711 8.3875 6.66054 8.58934 6.91033 8.80909C7.15007 9.02 7.29294 9.31529 7.29294 9.706H9.66794ZM5.51244 6.0125H2.34844V8.3875H5.51244V6.0125ZM1.16094 7.2V17H3.53594V7.2H1.16094ZM4.65594 11.442V8.208H2.28094V11.442H4.65594ZM3.46844 9.3955H5.51244V7.0205H3.46844V9.3955ZM5.51244 9.3955C5.81159 9.3955 5.97115 9.48241 6.03597 9.53802C6.08368 9.57895 6.13094 9.64065 6.13094 9.79H8.50594C8.50594 8.97335 8.1752 8.24405 7.58241 7.73548C7.00673 7.24159 6.2633 7.0205 5.51244 7.0205V9.3955ZM6.13094 9.79C6.13094 9.97362 6.07174 10.0553 6.01877 10.1025C5.95329 10.1609 5.79151 10.2545 5.47044 10.2545V12.6295C6.25537 12.6295 7.01759 12.3941 7.59961 11.875C8.19414 11.3447 8.50594 10.6004 8.50594 9.79H6.13094ZM5.47044 10.2545H3.46844V12.6295H5.47044V10.2545ZM4.65594 16.006V12.394H2.28094V16.006H4.65594ZM3.46844 13.5815H5.47044V11.2065H3.46844V13.5815ZM5.47044 13.5815C5.88667 13.5815 6.15695 13.6777 6.28927 13.7725C6.34655 13.8135 6.37849 13.8535 6.39994 13.8961C6.42182 13.9397 6.45294 14.0264 6.45294 14.186H8.82794C8.82794 13.1747 8.39673 12.3605 7.67211 11.8415C7.00293 11.3623 6.18821 11.2065 5.47044 11.2065V13.5815ZM6.45294 14.186C6.45294 14.5134 6.35354 14.6077 6.30486 14.6473C6.21818 14.7178 6.00614 14.8185 5.59644 14.8185V17.1935C6.34874 17.1935 7.1587 17.0142 7.80352 16.4897C8.48635 15.9343 8.82794 15.1186 8.82794 14.186H6.45294ZM5.59644 14.8185H3.46844V17.1935H5.59644V14.8185ZM23.6887 7.2H24.8762V6.0125H23.6887V7.2ZM22.5687 7.2V6.0125H21.3812V7.2H22.5687ZM17.5147 7.2H18.7022V6.0125H17.5147V7.2ZM16.3807 7.2V6.0125H15.1932V7.2H16.3807ZM20.0347 18.3695C21.46 18.3695 22.7054 17.9031 23.5911 16.9775C24.4696 16.0596 24.8762 14.8138 24.8762 13.472H22.5012C22.5012 14.3422 22.2428 14.9514 21.8753 15.3355C21.515 15.7119 20.9334 15.9945 20.0347 15.9945V18.3695ZM24.8762 13.472V7.2H22.5012V13.472H24.8762ZM23.6887 6.0125H22.5687V8.3875H23.6887V6.0125ZM21.3812 7.2V13.458H23.7562V7.2H21.3812ZM21.3812 13.458C21.3812 14.0735 21.2168 14.4212 21.0476 14.6049C20.8921 14.7738 20.6045 14.9445 20.0347 14.9445V17.3195C21.1169 17.3195 22.0963 16.9722 22.7948 16.2136C23.4796 15.4698 23.7562 14.4805 23.7562 13.458H21.3812ZM20.0347 14.9445C19.4652 14.9445 19.1823 14.7741 19.0306 14.6086C18.8644 14.4273 18.7022 14.0828 18.7022 13.472H16.3272C16.3272 14.4852 16.599 15.4707 17.2798 16.2134C17.9751 16.9719 18.9522 17.3195 20.0347 17.3195V14.9445ZM18.7022 13.472V7.2H16.3272V13.472H18.7022ZM17.5147 6.0125H16.3807V8.3875H17.5147V6.0125ZM15.1932 7.2V13.486H17.5682V7.2H15.1932ZM15.1932 13.486C15.1932 14.8269 15.5884 16.0732 16.4688 16.9908C17.3565 17.9161 18.6052 18.3695 20.0347 18.3695V15.9945C19.1122 15.9945 18.5339 15.7129 18.1826 15.3467C17.824 14.9728 17.5682 14.3711 17.5682 13.486H15.1932ZM31.9508 17H30.7633V18.1875H31.9508V17ZM33.0848 17V18.1875H34.2723V17H33.0848ZM33.0848 7.2H34.2723V6.0125H33.0848V7.2ZM31.9508 7.2V6.0125H30.7633V7.2H31.9508ZM31.9508 18.1875H33.0848V15.8125H31.9508V18.1875ZM34.2723 17V7.2H31.8973V17H34.2723ZM33.0848 6.0125H31.9508V8.3875H33.0848V6.0125ZM30.7633 7.2V17H33.1383V7.2H30.7633ZM41.4883 17H40.3008V18.1875H41.4883V17ZM46.8503 17V18.1875H48.0378V17H46.8503ZM46.8503 15.978H48.0378V14.7905H46.8503V15.978ZM42.6223 15.978H41.4348V17.1655H42.6223V15.978ZM42.6223 7.2H43.8098V6.0125H42.6223V7.2ZM41.4883 7.2V6.0125H40.3008V7.2H41.4883ZM41.4883 18.1875H46.8503V15.8125H41.4883V18.1875ZM48.0378 17V15.978H45.6628V17H48.0378ZM46.8503 14.7905H42.6223V17.1655H46.8503V14.7905ZM43.8098 15.978V7.2H41.4348V15.978H43.8098ZM42.6223 6.0125H41.4883V8.3875H42.6223V6.0125ZM40.3008 7.2V17H42.6758V7.2H40.3008ZM54.8875 17H53.7V18.1875H54.8875V17ZM56.0215 17V18.1875H57.209V17H56.0215ZM56.0215 8.236V7.0485H54.834V8.236H56.0215ZM59.0175 8.236V9.4235H60.205V8.236H59.0175ZM59.0175 7.2H60.205V6.0125H59.0175V7.2ZM51.8915 7.2V6.0125H50.704V7.2H51.8915ZM51.8915 8.236H50.704V9.4235H51.8915V8.236ZM54.8875 8.236H56.075V7.0485H54.8875V8.236ZM54.8875 18.1875H56.0215V15.8125H54.8875V18.1875ZM57.209 17V8.236H54.834V17H57.209ZM56.0215 9.4235H59.0175V7.0485H56.0215V9.4235ZM60.205 8.236V7.2H57.83V8.236H60.205ZM59.0175 6.0125H51.8915V8.3875H59.0175V6.0125ZM50.704 7.2V8.236H53.079V7.2H50.704ZM51.8915 9.4235H54.8875V7.0485H51.8915V9.4235ZM53.7 8.236V17H56.075V8.236H53.7ZM80.32 18.3695C83.9083 18.3695 86.5895 15.6334 86.5895 12.1H84.2145C84.2145 14.3346 82.5837 15.9945 80.32 15.9945V18.3695ZM86.5895 12.1C86.5895 8.60333 83.9309 5.8305 80.334 5.8305V8.2055C82.5891 8.2055 84.2145 9.88467 84.2145 12.1H86.5895ZM80.334 5.8305C76.7576 5.8305 74.0785 8.56882 74.0785 12.1H76.4535C76.4535 9.86318 78.0865 8.2055 80.334 8.2055V5.8305ZM74.0785 12.1C74.0785 15.6591 76.7435 18.3695 80.32 18.3695V15.9945C78.0725 15.9945 76.4535 14.3649 76.4535 12.1H74.0785ZM80.334 14.9305C78.783 14.9305 77.6295 13.8018 77.6295 12.1H75.2545C75.2545 15.0462 77.405 17.3055 80.334 17.3055V14.9305ZM77.6295 12.1C77.6295 10.4206 78.7884 9.2695 80.334 9.2695V6.8945C77.3996 6.8945 75.2545 9.18739 75.2545 12.1H77.6295ZM80.334 9.2695C81.8796 9.2695 83.0385 10.4206 83.0385 12.1H85.4135C85.4135 9.18739 83.2684 6.8945 80.334 6.8945V9.2695ZM83.0385 12.1C83.0385 13.8018 81.885 14.9305 80.334 14.9305V17.3055C83.263 17.3055 85.4135 15.0462 85.4135 12.1H83.0385ZM93.1051 17H91.9176V18.1875H93.1051V17ZM94.2391 17V18.1875H95.4266V17H94.2391ZM94.2391 9.174V7.9865H93.0516V9.174H94.2391ZM94.3231 9.174L95.3198 8.52852L94.9688 7.9865H94.3231V9.174ZM99.3911 17L98.3943 17.6455L98.7453 18.1875H99.3911V17ZM100.595 17V18.1875H101.783V17H100.595ZM100.595 7.2H101.783V6.0125H100.595V7.2ZM99.4751 7.2V6.0125H98.2876V7.2H99.4751ZM99.4751 15.026V16.2135H100.663V15.026H99.4751ZM99.3911 15.026L98.3976 15.6765L98.7492 16.2135H99.3911V15.026ZM94.2671 7.2L95.2606 6.54952L94.909 6.0125H94.2671V7.2ZM93.1051 7.2V6.0125H91.9176V7.2H93.1051ZM93.1051 18.1875H94.2391V15.8125H93.1051V18.1875ZM95.4266 17V9.174H93.0516V17H95.4266ZM94.2391 10.3615H94.3231V7.9865H94.2391V10.3615ZM93.3263 9.81948L98.3943 17.6455L100.388 16.3545L95.3198 8.52852L93.3263 9.81948ZM99.3911 18.1875H100.595V15.8125H99.3911V18.1875ZM101.783 17V7.2H99.4076V17H101.783ZM100.595 6.0125H99.4751V8.3875H100.595V6.0125ZM98.2876 7.2V15.026H100.663V7.2H98.2876ZM99.4751 13.8385H99.3911V16.2135H99.4751V13.8385ZM100.385 14.3755L95.2606 6.54952L93.2736 7.85048L98.3976 15.6765L100.385 14.3755ZM94.2671 6.0125H93.1051V8.3875H94.2671V6.0125ZM91.9176 7.2V17H94.2926V7.2H91.9176Z" fill="url(#paint4_linear)" fill-opacity="0.12"/>
<g filter="url(#filter2_i)">
<circle cx="163.89" cy="75.89" r="28.89" fill="url(#paint5_linear)"/>
</g>
<circle cx="163.89" cy="75.89" r="28.2962" stroke="url(#paint6_linear)" stroke-opacity="0.12" stroke-width="1.1875"/>
<defs>
<filter id="filter0_i" x="125.989" y="47.2172" width="67.2829" height="57.7829" filterUnits="userSpaceOnUse" color-interpolation-filters="sRGB">
<feFlood flood-opacity="0" result="BackgroundImageFix"/>
<feBlend mode="normal" in="SourceGraphic" in2="BackgroundImageFix" result="shape"/>
<feColorMatrix in="SourceAlpha" type="matrix" values="0 0 0 0 0 0 0 0 0 0 0 0 0 0 0 0 0 0 127 0" result="hardAlpha"/>
<feOffset dx="-14.25"/>
<feGaussianBlur stdDeviation="4.75"/>
<feComposite in2="hardAlpha" operator="arithmetic" k2="-1" k3="1"/>
<feColorMatrix type="matrix" values="0 0 0 0 0.682353 0 0 0 0 0.45098 0 0 0 0 0.980392 0 0 0 0.56 0"/>
<feBlend mode="normal" in2="shape" result="effect1_innerShadow"/>
</filter>
<filter id="filter1_i" x="-7.15155" y="7.01794" width="107.747" height="10.164" filterUnits="userSpaceOnUse" color-interpolation-filters="sRGB">
<feFlood flood-opacity="0" result="BackgroundImageFix"/>
<feBlend mode="normal" in="SourceGraphic" in2="BackgroundImageFix" result="shape"/>
<feColorMatrix in="SourceAlpha" type="matrix" values="0 0 0 0 0 0 0 0 0 0 0 0 0 0 0 0 0 0 127 0" result="hardAlpha"/>
<feOffset dx="-14.25"/>
<feGaussianBlur stdDeviation="4.75"/>
<feComposite in2="hardAlpha" operator="arithmetic" k2="-1" k3="1"/>
<feColorMatrix type="matrix" values="0 0 0 0 1 0 0 0 0 1 0 0 0 0 1 0 0 0 0.56 0"/>
<feBlend mode="normal" in2="shape" result="effect1_innerShadow"/>
</filter>
<filter id="filter2_i" x="125.5" y="47" width="67.28" height="57.78" filterUnits="userSpaceOnUse" color-interpolation-filters="sRGB">
<feFlood flood-opacity="0" result="BackgroundImageFix"/>
<feBlend mode="normal" in="SourceGraphic" in2="BackgroundImageFix" result="shape"/>
<feColorMatrix in="SourceAlpha" type="matrix" values="0 0 0 0 0 0 0 0 0 0 0 0 0 0 0 0 0 0 127 0" result="hardAlpha"/>
<feOffset dx="-14.25"/>
<feGaussianBlur stdDeviation="4.75"/>
<feComposite in2="hardAlpha" operator="arithmetic" k2="-1" k3="1"/>
<feColorMatrix type="matrix" values="0 0 0 0 0.682353 0 0 0 0 0.45098 0 0 0 0 0.980392 0 0 0 0.56 0"/>
<feBlend mode="normal" in2="shape" result="effect1_innerShadow"/>
</filter>
<linearGradient id="paint0_linear" x1="163.89" y1="47" x2="163.89" y2="104.78" gradientUnits="userSpaceOnUse">
<stop stop-color="#130C3F"/>
<stop offset="1" stop-color="#15197B"/>
</linearGradient>
<linearGradient id="paint1_linear" x1="135.489" y1="76.1086" x2="193.272" y2="76.1086" gradientUnits="userSpaceOnUse">
<stop stop-color="#AE73FA"/>
<stop offset="1" stop-color="#AE73FA" stop-opacity="0"/>
</linearGradient>
<linearGradient id="paint2_linear" x1="193.272" y1="76.1086" x2="135.489" y2="76.1086" gradientUnits="userSpaceOnUse">
<stop stop-color="#AE73FA"/>
<stop offset="1" stop-color="#AE73FA" stop-opacity="0"/>
</linearGradient>
<linearGradient id="paint3_linear" x1="0" y1="12.5" x2="102" y2="12.5" gradientUnits="userSpaceOnUse">
<stop stop-color="#8946DF"/>
<stop offset="1"/>
</linearGradient>
<linearGradient id="paint4_linear" x1="102" y1="12.5" x2="-1.49023e-06" y2="12.5" gradientUnits="userSpaceOnUse">
<stop stop-color="white"/>
<stop offset="1" stop-color="white" stop-opacity="0"/>
</linearGradient>
<linearGradient id="paint5_linear" x1="135" y1="75.89" x2="192.78" y2="75.89" gradientUnits="userSpaceOnUse">
<stop stop-color="#AE73FA"/>
<stop offset="1" stop-color="#AE73FA" stop-opacity="0"/>
</linearGradient>
<linearGradient id="paint6_linear" x1="192.78" y1="75.89" x2="135" y2="75.89" gradientUnits="userSpaceOnUse">
<stop stop-color="#AE73FA"/>
<stop offset="1" stop-color="#AE73FA" stop-opacity="0"/>
</linearGradient>
</defs>
</svg>
