<?xml version="1.0" encoding="utf-8"?>
<!-- Generator: Adobe Illustrator 23.1.0, SVG Export Plug-In . SVG Version: 6.00 Build 0)  -->
<svg version="1.1" id="Layer_1" xmlns="http://www.w3.org/2000/svg" xmlns:xlink="http://www.w3.org/1999/xlink" x="0px" y="0px"
	 viewBox="0 0 23.9 20" style="enable-background:new 0 0 23.9 20;" xml:space="preserve">
<style type="text/css">
	.st0{fill:none;stroke:#453E56;stroke-width:1.1;stroke-miterlimit:10;}
	.st1{fill:none;stroke:#453E56;stroke-width:1.1;stroke-linecap:round;stroke-linejoin:round;}
</style>
<title>Token_1</title>
<circle class="st0" cx="10" cy="10" r="9.5"/>
<path class="st0" d="M10,19.5h3.9c5.2,0,9.5-4.2,9.5-9.5c0-5.2-4.2-9.5-9.5-9.5c0,0,0,0,0,0H10"/>
<line class="st1" x1="18.9" y1="6.9" x2="22.8" y2="6.9"/>
<line class="st1" x1="18" y1="15.1" x2="21.9" y2="15.1"/>
<path class="st1" d="M6.9,15.8l-1.2-3.4V9.8l0.5-0.6L5.4,7.5L6.8,6l4.4,0.1l0.5-0.8h1.9l-0.8,1.6l2.4,3.6l-0.4,2.1l-1.8,0.3
	l-0.2,0.7L10.7,15L6.9,15.8z"/>
</svg>
