<?xml version="1.0" encoding="utf-8"?>
<!-- Generator: Adobe Illustrator 23.1.0, SVG Export Plug-In . SVG Version: 6.00 Build 0)  -->
<svg version="1.1" id="Layer_1" xmlns="http://www.w3.org/2000/svg" xmlns:xlink="http://www.w3.org/1999/xlink" x="0px" y="0px"
	 viewBox="0 0 24 24" style="enable-background:new 0 0 24 24;" xml:space="preserve">
<style type="text/css">
	.st0{fill:none;stroke:#453E56;stroke-width:1.1;stroke-miterlimit:10;}
	.st1{fill:none;stroke:#453E56;stroke-width:1.1;stroke-linecap:round;stroke-linejoin:round;}
</style>
<title>Transfer_1</title>
<path class="st0" d="M12,23.4C5.7,23.4,0.6,18.3,0.6,12c0-3.5,1.6-6.7,4.3-8.9"/>
<path class="st0" d="M12,0.6c6.3,0,11.4,5.1,11.4,11.4c0,3.5-1.6,6.9-4.4,9"/>
<polyline class="st0" points="5,8.1 5,3.1 0,3.1 "/>
<polyline class="st0" points="19,16 19,21 24,21 "/>
<path class="st1" d="M8.6,18.2l-1.2-3.4v-2.6l0.5-0.6L7.1,10l1.5-1.5l4.4,0.1l0.5-0.8h1.9l-0.8,1.6l2.4,3.6L16.5,15l-1.8,0.3
	L14.5,16l-2.1,1.5L8.6,18.2z"/>
</svg>
