<svg width="246" height="120" viewBox="0 0 246 120" fill="none" xmlns="http://www.w3.org/2000/svg">
<path d="M26.4994 78.5554H34.5644V71.3283H27.0231C20.7386 71.3283 18.5391 67.8719 18.5391 62.0064V31.108H35.2976V24.0903H18.5391V8.27451H10.7883V21.3671C10.7883 23.1477 9.63613 24.0903 8.16976 24.0903H0V31.108H10.2646V62.1112C10.2646 73.1089 16.4443 78.5554 26.4994 78.5554Z" fill="white"/>
<path d="M72.9788 79.9171C85.7571 79.9171 95.2885 72.69 98.326 62.5301H89.7373C87.2235 68.9193 80.3106 72.3757 73.0835 72.3757C61.8763 72.3757 54.8587 65.1486 54.4397 54.2556H98.8497V50.5897C98.8497 34.8786 89.0041 22.7287 72.4551 22.7287C57.5819 22.7287 45.7463 33.9359 45.7463 51.3229C45.7463 67.6624 56.3251 79.9171 72.9788 79.9171ZM54.6492 46.9238C55.4871 36.8687 63.3427 30.27 72.4551 30.27C81.6723 30.27 89.3183 36.0308 90.0515 46.9238H54.6492Z" fill="white"/>
<path d="M121.175 78.5554H125.155V71.2236H122.641C120.023 71.2236 118.661 69.6525 118.661 66.9292V0H110.387V66.9292C110.387 74.3658 114.367 78.5554 121.175 78.5554Z" fill="white"/>
<path d="M224.142 79.9171C236.815 79.9171 245.299 73.0042 245.299 62.7396C245.299 40.2204 212.62 51.7418 212.62 37.9161C212.62 33.2028 217.019 29.8511 223.827 29.8511C231.054 29.8511 234.93 33.3075 235.663 38.4398H243.623C242.785 28.5942 234.406 22.7287 224.351 22.7287C212.934 22.7287 204.66 28.6989 204.66 37.9161C204.66 59.4926 237.234 47.8664 237.234 63.1586C237.234 68.7098 232.73 72.69 224.56 72.69C216.6 72.69 211.992 69.2335 211.049 62.7396H202.984C203.927 72.8994 211.258 79.9171 224.142 79.9171Z" fill="white"/>
<g filter="url(#filter0_i)">
<circle cx="163.381" cy="51.1086" r="28.8914" fill="url(#paint0_linear)"/>
</g>
<circle cx="163.381" cy="51.1086" r="28.2977" stroke="url(#paint1_linear)" stroke-opacity="0.12" stroke-width="1.1875"/>
<g filter="url(#filter1_i)">
<path d="M104.795 112H105.929V107.618H110.087V106.596H105.929V103.236H110.381V102.2H104.795V112ZM122.433 112.182C125.359 112.182 127.515 109.984 127.515 107.1C127.515 104.244 125.373 102.018 122.447 102.018C119.535 102.018 117.379 104.216 117.379 107.1C117.379 110.012 119.521 112.182 122.433 112.182ZM122.447 111.118C120.207 111.118 118.555 109.424 118.555 107.1C118.555 104.804 120.207 103.082 122.447 103.082C124.687 103.082 126.339 104.804 126.339 107.1C126.339 109.424 124.687 111.118 122.447 111.118ZM138.732 112.182C141.056 112.182 142.386 110.684 142.386 108.472V102.2H141.266V108.458C141.266 110.096 140.384 111.132 138.732 111.132C137.08 111.132 136.212 110.096 136.212 108.472V102.2H135.078V108.486C135.078 110.712 136.38 112.182 138.732 112.182ZM150.648 112H151.782V104.174H151.866L156.934 112H158.138V102.2H157.018V110.026H156.934L151.81 102.2H150.648V112ZM166.543 112H169.455C172.563 112 174.369 110.138 174.369 107.1C174.369 104.244 172.563 102.2 169.455 102.2H166.543V112ZM167.677 110.992V103.222H169.455C171.807 103.222 173.207 104.734 173.207 107.1C173.207 109.564 171.779 110.992 169.455 110.992H167.677ZM180.675 112H181.865L182.747 109.676H187.479L188.361 112H189.551L185.785 102.2H184.455L180.675 112ZM183.139 108.64L185.071 103.516H185.155L187.087 108.64H183.139ZM198.147 112H199.281V103.236H202.277V102.2H195.151V103.236H198.147V112ZM209.702 112H210.836V102.2H209.702V112ZM223.32 112.182C226.246 112.182 228.402 109.984 228.402 107.1C228.402 104.244 226.26 102.018 223.334 102.018C220.422 102.018 218.266 104.216 218.266 107.1C218.266 110.012 220.408 112.182 223.32 112.182ZM223.334 111.118C221.094 111.118 219.442 109.424 219.442 107.1C219.442 104.804 221.094 103.082 223.334 103.082C225.574 103.082 227.226 104.804 227.226 107.1C227.226 109.424 225.574 111.118 223.334 111.118ZM236.105 112H237.239V104.174H237.323L242.391 112H243.595V102.2H242.475V110.026H242.391L237.267 102.2H236.105V112Z" fill="url(#paint2_linear)"/>
</g>
<path d="M104.795 112H103.607V113.188H104.795V112ZM105.929 112V113.188H107.116V112H105.929ZM105.929 107.618V106.431H104.741V107.618H105.929ZM110.087 107.618V108.806H111.274V107.618H110.087ZM110.087 106.596H111.274V105.408H110.087V106.596ZM105.929 106.596H104.741V107.783H105.929V106.596ZM105.929 103.236V102.048H104.741V103.236H105.929ZM110.381 103.236V104.423H111.568V103.236H110.381ZM110.381 102.2H111.568V101.012H110.381V102.2ZM104.795 102.2V101.012H103.607V102.2H104.795ZM104.795 113.188H105.929V110.812H104.795V113.188ZM107.116 112V107.618H104.741V112H107.116ZM105.929 108.806H110.087V106.431H105.929V108.806ZM111.274 107.618V106.596H108.899V107.618H111.274ZM110.087 105.408H105.929V107.783H110.087V105.408ZM107.116 106.596V103.236H104.741V106.596H107.116ZM105.929 104.423H110.381V102.048H105.929V104.423ZM111.568 103.236V102.2H109.193V103.236H111.568ZM110.381 101.012H104.795V103.387H110.381V101.012ZM103.607 102.2V112H105.982V102.2H103.607ZM122.433 113.369C126.021 113.369 128.702 110.633 128.702 107.1H126.327C126.327 109.335 124.696 110.995 122.433 110.995V113.369ZM128.702 107.1C128.702 103.603 126.043 100.83 122.447 100.83V103.205C124.702 103.205 126.327 104.885 126.327 107.1H128.702ZM122.447 100.83C118.87 100.83 116.191 103.569 116.191 107.1H118.566C118.566 104.863 120.199 103.205 122.447 103.205V100.83ZM116.191 107.1C116.191 110.659 118.856 113.369 122.433 113.369V110.995C120.185 110.995 118.566 109.365 118.566 107.1H116.191ZM122.447 109.931C120.896 109.931 119.742 108.802 119.742 107.1H117.367C117.367 110.046 119.518 112.306 122.447 112.306V109.931ZM119.742 107.1C119.742 105.421 120.901 104.269 122.447 104.269V101.894C119.512 101.894 117.367 104.187 117.367 107.1H119.742ZM122.447 104.269C123.992 104.269 125.151 105.421 125.151 107.1H127.526C127.526 104.187 125.381 101.894 122.447 101.894V104.269ZM125.151 107.1C125.151 108.802 123.998 109.931 122.447 109.931V112.306C125.376 112.306 127.526 110.046 127.526 107.1H125.151ZM142.386 102.2H143.573V101.012H142.386V102.2ZM141.266 102.2V101.012H140.078V102.2H141.266ZM136.212 102.2H137.399V101.012H136.212V102.2ZM135.078 102.2V101.012H133.89V102.2H135.078ZM138.732 113.369C140.157 113.369 141.402 112.903 142.288 111.978C143.166 111.06 143.573 109.814 143.573 108.472H141.198C141.198 109.342 140.94 109.951 140.572 110.335C140.212 110.712 139.63 110.995 138.732 110.995V113.369ZM143.573 108.472V102.2H141.198V108.472H143.573ZM142.386 101.012H141.266V103.387H142.386V101.012ZM140.078 102.2V108.458H142.453V102.2H140.078ZM140.078 108.458C140.078 109.073 139.914 109.421 139.744 109.605C139.589 109.774 139.301 109.944 138.732 109.944V112.319C139.814 112.319 140.793 111.972 141.492 111.214C142.177 110.47 142.453 109.481 142.453 108.458H140.078ZM138.732 109.944C138.162 109.944 137.879 109.774 137.727 109.609C137.561 109.427 137.399 109.083 137.399 108.472H135.024C135.024 109.485 135.296 110.471 135.977 111.213C136.672 111.972 137.649 112.319 138.732 112.319V109.944ZM137.399 108.472V102.2H135.024V108.472H137.399ZM136.212 101.012H135.078V103.387H136.212V101.012ZM133.89 102.2V108.486H136.265V102.2H133.89ZM133.89 108.486C133.89 109.827 134.285 111.073 135.166 111.991C136.053 112.916 137.302 113.369 138.732 113.369V110.995C137.809 110.995 137.231 110.713 136.88 110.347C136.521 109.973 136.265 109.371 136.265 108.486H133.89ZM150.648 112H149.46V113.188H150.648V112ZM151.782 112V113.188H152.969V112H151.782ZM151.782 104.174V102.986H150.594V104.174H151.782ZM151.866 104.174L152.862 103.529L152.511 102.986H151.866V104.174ZM156.934 112L155.937 112.645L156.288 113.188H156.934V112ZM158.138 112V113.188H159.325V112H158.138ZM158.138 102.2H159.325V101.012H158.138V102.2ZM157.018 102.2V101.012H155.83V102.2H157.018ZM157.018 110.026V111.213H158.205V110.026H157.018ZM156.934 110.026L155.94 110.676L156.292 111.213H156.934V110.026ZM151.81 102.2L152.803 101.55L152.452 101.012H151.81V102.2ZM150.648 102.2V101.012H149.46V102.2H150.648ZM150.648 113.188H151.782V110.812H150.648V113.188ZM152.969 112V104.174H150.594V112H152.969ZM151.782 105.361H151.866V102.986H151.782V105.361ZM150.869 104.819L155.937 112.645L157.93 111.355L152.862 103.529L150.869 104.819ZM156.934 113.188H158.138V110.812H156.934V113.188ZM159.325 112V102.2H156.95V112H159.325ZM158.138 101.012H157.018V103.387H158.138V101.012ZM155.83 102.2V110.026H158.205V102.2H155.83ZM157.018 108.839H156.934V111.213H157.018V108.839ZM157.927 109.376L152.803 101.55L150.816 102.85L155.94 110.676L157.927 109.376ZM151.81 101.012H150.648V103.387H151.81V101.012ZM149.46 102.2V112H151.835V102.2H149.46ZM166.543 112H165.355V113.188H166.543V112ZM166.543 102.2V101.012H165.355V102.2H166.543ZM167.677 110.992H166.489V112.18H167.677V110.992ZM167.677 103.222V102.034H166.489V103.222H167.677ZM166.543 113.188H169.455V110.812H166.543V113.188ZM169.455 113.188C171.247 113.188 172.807 112.646 173.919 111.526C175.031 110.408 175.556 108.854 175.556 107.1H173.181C173.181 108.384 172.804 109.28 172.235 109.852C171.667 110.423 170.77 110.812 169.455 110.812V113.188ZM175.556 107.1C175.556 105.422 175.022 103.881 173.93 102.753C172.833 101.619 171.278 101.012 169.455 101.012V103.387C170.739 103.387 171.641 103.803 172.224 104.405C172.812 105.013 173.181 105.922 173.181 107.1H175.556ZM169.455 101.012H166.543V103.387H169.455V101.012ZM165.355 102.2V112H167.73V102.2H165.355ZM168.864 110.992V103.222H166.489V110.992H168.864ZM167.677 104.409H169.455V102.034H167.677V104.409ZM169.455 104.409C170.369 104.409 170.974 104.697 171.354 105.094C171.741 105.499 172.019 106.149 172.019 107.1H174.394C174.394 105.685 173.972 104.396 173.071 103.453C172.163 102.503 170.892 102.034 169.455 102.034V104.409ZM172.019 107.1C172.019 108.105 171.732 108.751 171.351 109.142C170.974 109.529 170.371 109.804 169.455 109.804V112.18C170.863 112.18 172.135 111.741 173.053 110.798C173.968 109.859 174.394 108.559 174.394 107.1H172.019ZM169.455 109.804H167.677V112.18H169.455V109.804ZM180.675 112L179.567 111.573L178.944 113.188H180.675V112ZM181.865 112V113.188H182.684L182.975 112.421L181.865 112ZM182.747 109.676V108.488H181.927L181.637 109.255L182.747 109.676ZM187.479 109.676L188.589 109.255L188.298 108.488H187.479V109.676ZM188.361 112L187.251 112.421L187.541 113.188H188.361V112ZM189.551 112V113.188H191.279L190.659 111.574L189.551 112ZM185.785 102.2L186.893 101.774L186.601 101.012H185.785V102.2ZM184.455 102.2V101.012H183.64L183.347 101.773L184.455 102.2ZM183.139 108.64L182.028 108.221L181.422 109.827H183.139V108.64ZM185.071 103.516V102.328H184.25L183.96 103.097L185.071 103.516ZM185.155 103.516L186.266 103.097L185.976 102.328H185.155V103.516ZM187.087 108.64V109.827H188.804L188.198 108.221L187.087 108.64ZM180.675 113.188H181.865V110.812H180.675V113.188ZM182.975 112.421L183.857 110.097L181.637 109.255L180.755 111.579L182.975 112.421ZM182.747 110.863H187.479V108.488H182.747V110.863ZM186.369 110.097L187.251 112.421L189.471 111.579L188.589 109.255L186.369 110.097ZM188.361 113.188H189.551V110.812H188.361V113.188ZM190.659 111.574L186.893 101.774L184.676 102.626L188.442 112.426L190.659 111.574ZM185.785 101.012H184.455V103.387H185.785V101.012ZM183.347 101.773L179.567 111.573L181.783 112.427L185.563 102.627L183.347 101.773ZM184.25 109.059L186.182 103.935L183.96 103.097L182.028 108.221L184.25 109.059ZM185.071 104.703H185.155V102.328H185.071V104.703ZM184.044 103.935L185.976 109.059L188.198 108.221L186.266 103.097L184.044 103.935ZM187.087 107.452H183.139V109.827H187.087V107.452ZM198.147 112H196.96V113.188H198.147V112ZM199.281 112V113.188H200.469V112H199.281ZM199.281 103.236V102.048H198.094V103.236H199.281ZM202.277 103.236V104.423H203.465V103.236H202.277ZM202.277 102.2H203.465V101.012H202.277V102.2ZM195.151 102.2V101.012H193.964V102.2H195.151ZM195.151 103.236H193.964V104.423H195.151V103.236ZM198.147 103.236H199.335V102.048H198.147V103.236ZM198.147 113.188H199.281V110.812H198.147V113.188ZM200.469 112V103.236H198.094V112H200.469ZM199.281 104.423H202.277V102.048H199.281V104.423ZM203.465 103.236V102.2H201.09V103.236H203.465ZM202.277 101.012H195.151V103.387H202.277V101.012ZM193.964 102.2V103.236H196.339V102.2H193.964ZM195.151 104.423H198.147V102.048H195.151V104.423ZM196.96 103.236V112H199.335V103.236H196.96ZM209.702 112H208.514V113.188H209.702V112ZM210.836 112V113.188H212.023V112H210.836ZM210.836 102.2H212.023V101.012H210.836V102.2ZM209.702 102.2V101.012H208.514V102.2H209.702ZM209.702 113.188H210.836V110.812H209.702V113.188ZM212.023 112V102.2H209.648V112H212.023ZM210.836 101.012H209.702V103.387H210.836V101.012ZM208.514 102.2V112H210.889V102.2H208.514ZM223.32 113.369C226.908 113.369 229.59 110.633 229.59 107.1H227.215C227.215 109.335 225.584 110.995 223.32 110.995V113.369ZM229.59 107.1C229.59 103.603 226.931 100.83 223.334 100.83V103.205C225.589 103.205 227.215 104.885 227.215 107.1H229.59ZM223.334 100.83C219.758 100.83 217.079 103.569 217.079 107.1H219.454C219.454 104.863 221.086 103.205 223.334 103.205V100.83ZM217.079 107.1C217.079 110.659 219.744 113.369 223.32 113.369V110.995C221.073 110.995 219.454 109.365 219.454 107.1H217.079ZM223.334 109.931C221.783 109.931 220.63 108.802 220.63 107.1H218.255C218.255 110.046 220.405 112.306 223.334 112.306V109.931ZM220.63 107.1C220.63 105.421 221.788 104.269 223.334 104.269V101.894C220.4 101.894 218.255 104.187 218.255 107.1H220.63ZM223.334 104.269C224.88 104.269 226.039 105.421 226.039 107.1H228.414C228.414 104.187 226.268 101.894 223.334 101.894V104.269ZM226.039 107.1C226.039 108.802 224.885 109.931 223.334 109.931V112.306C226.263 112.306 228.414 110.046 228.414 107.1H226.039ZM236.105 112H234.918V113.188H236.105V112ZM237.239 112V113.188H238.427V112H237.239ZM237.239 104.174V102.986H236.052V104.174H237.239ZM237.323 104.174L238.32 103.529L237.969 102.986H237.323V104.174ZM242.391 112L241.394 112.645L241.745 113.188H242.391V112ZM243.595 112V113.188H244.783V112H243.595ZM243.595 102.2H244.783V101.012H243.595V102.2ZM242.475 102.2V101.012H241.288V102.2H242.475ZM242.475 110.026V111.213H243.663V110.026H242.475ZM242.391 110.026L241.398 110.676L241.749 111.213H242.391V110.026ZM237.267 102.2L238.261 101.55L237.909 101.012H237.267V102.2ZM236.105 102.2V101.012H234.918V102.2H236.105ZM236.105 113.188H237.239V110.812H236.105V113.188ZM238.427 112V104.174H236.052V112H238.427ZM237.239 105.361H237.323V102.986H237.239V105.361ZM236.326 104.819L241.394 112.645L243.388 111.355L238.32 103.529L236.326 104.819ZM242.391 113.188H243.595V110.812H242.391V113.188ZM244.783 112V102.2H242.408V112H244.783ZM243.595 101.012H242.475V103.387H243.595V101.012ZM241.288 102.2V110.026H243.663V102.2H241.288ZM242.475 108.839H242.391V111.213H242.475V108.839ZM243.385 109.376L238.261 101.55L236.274 102.85L241.398 110.676L243.385 109.376ZM237.267 101.012H236.105V103.387H237.267V101.012ZM234.918 102.2V112H237.293V102.2H234.918Z" fill="url(#paint3_linear)" fill-opacity="0.12"/>
<defs>
<filter id="filter0_i" x="124.989" y="22.2172" width="67.2829" height="57.7829" filterUnits="userSpaceOnUse" color-interpolation-filters="sRGB">
<feFlood flood-opacity="0" result="BackgroundImageFix"/>
<feBlend mode="normal" in="SourceGraphic" in2="BackgroundImageFix" result="shape"/>
<feColorMatrix in="SourceAlpha" type="matrix" values="0 0 0 0 0 0 0 0 0 0 0 0 0 0 0 0 0 0 127 0" result="hardAlpha"/>
<feOffset dx="-14.25"/>
<feGaussianBlur stdDeviation="4.75"/>
<feComposite in2="hardAlpha" operator="arithmetic" k2="-1" k3="1"/>
<feColorMatrix type="matrix" values="0 0 0 0 0.682353 0 0 0 0 0.45098 0 0 0 0 0.980392 0 0 0 0.56 0"/>
<feBlend mode="normal" in2="shape" result="effect1_innerShadow"/>
</filter>
<filter id="filter1_i" x="95.2949" y="102.018" width="148.3" height="10.164" filterUnits="userSpaceOnUse" color-interpolation-filters="sRGB">
<feFlood flood-opacity="0" result="BackgroundImageFix"/>
<feBlend mode="normal" in="SourceGraphic" in2="BackgroundImageFix" result="shape"/>
<feColorMatrix in="SourceAlpha" type="matrix" values="0 0 0 0 0 0 0 0 0 0 0 0 0 0 0 0 0 0 127 0" result="hardAlpha"/>
<feOffset dx="-14.25"/>
<feGaussianBlur stdDeviation="4.75"/>
<feComposite in2="hardAlpha" operator="arithmetic" k2="-1" k3="1"/>
<feColorMatrix type="matrix" values="0 0 0 0 0.682353 0 0 0 0 0.45098 0 0 0 0 0.980392 0 0 0 0.56 0"/>
<feBlend mode="normal" in2="shape" result="effect1_innerShadow"/>
</filter>
<linearGradient id="paint0_linear" x1="134.489" y1="51.1086" x2="192.272" y2="51.1086" gradientUnits="userSpaceOnUse">
<stop stop-color="#AE73FA"/>
<stop offset="1" stop-color="#AE73FA" stop-opacity="0"/>
</linearGradient>
<linearGradient id="paint1_linear" x1="192.272" y1="51.1086" x2="134.489" y2="51.1086" gradientUnits="userSpaceOnUse">
<stop stop-color="#AE73FA"/>
<stop offset="1" stop-color="#AE73FA" stop-opacity="0"/>
</linearGradient>
<linearGradient id="paint2_linear" x1="103" y1="107.5" x2="245" y2="107.5" gradientUnits="userSpaceOnUse">
<stop stop-color="#AE73FA"/>
<stop offset="1" stop-color="#AE73FA" stop-opacity="0"/>
</linearGradient>
<linearGradient id="paint3_linear" x1="245" y1="107.5" x2="103" y2="107.5" gradientUnits="userSpaceOnUse">
<stop stop-color="#AE73FA"/>
<stop offset="1" stop-color="#AE73FA" stop-opacity="0"/>
</linearGradient>
</defs>
</svg>
